<svg width="40" height="40" viewBox="0 0 40 40" fill="none" xmlns="http://www.w3.org/2000/svg">
<path id="Vector" d="M18.5707 0.0444089C13.7958 0.399087 9.44065 2.36267 6.02094 5.7047C1.52357 10.0928 -0.635168 16.3056 0.163222 22.5476C1.15864 30.3506 6.66171 36.8496 14.2207 39.1507C20.0647 40.9301 26.5675 39.8746 31.5223 36.3493C37.6105 32.0117 40.7766 24.8179 39.8369 17.4519C38.8414 9.649 33.3384 3.14999 25.7794 0.848861C23.4439 0.153296 21.0028 -0.118286 18.5716 0.0469789L18.5707 0.0444089ZM20.0956 12.4384C21.1184 12.5395 21.6307 12.7015 21.8602 13.0004C21.9202 13.0836 22.017 13.2866 22.0718 13.4519C22.1918 13.8032 22.196 14.2033 22.1232 17.1992C22.077 19.0702 22.1044 19.6468 22.2569 20.0606C22.4282 20.5352 22.8325 20.752 23.182 20.5721C23.499 20.4059 24.2417 19.5903 24.7257 18.8672C25.8453 17.2078 26.5281 15.9218 27.347 13.9351C27.5132 13.5436 27.7342 13.284 27.9638 13.2241C28.0563 13.1966 29.3601 13.1726 30.9638 13.1684L33.7993 13.1598L34.0391 13.2609C34.1734 13.3033 34.2892 13.3905 34.3671 13.5078C34.445 13.6252 34.4804 13.7657 34.4674 13.906C34.4674 14.528 33.8164 15.8053 32.7028 17.3671C32.5503 17.5839 31.9746 18.3489 31.4178 19.072C30.2056 20.6654 29.9427 21.0398 29.7585 21.4279C29.5272 21.9162 29.5837 22.3172 29.9469 22.7918C30.0532 22.9254 30.5877 23.4643 31.136 23.9912C32.6711 25.4613 33.3667 26.2358 33.9338 27.0754C34.3389 27.6888 34.4957 28.1402 34.4306 28.5275C34.398 28.7391 34.1865 28.9927 33.9466 29.1186C33.6605 29.2617 33.2227 29.2899 30.813 29.3216L28.5318 29.3542L28.1634 29.23C27.2228 28.9164 26.5958 28.3955 25.172 26.7455C24.3839 25.8331 23.7988 25.3859 23.3928 25.3816C23.0193 25.3816 22.5361 25.8785 22.3417 26.4971C22.2046 26.9117 22.1532 27.2296 22.1104 27.9492C22.059 28.8059 21.9579 28.9944 21.4379 29.212C21.2495 29.2951 18.8988 29.3234 18.2769 29.2583C17.0279 29.1212 15.8715 28.7271 14.7236 28.0589C13.06 27.0822 12.0423 26.2058 10.9492 24.8136C9.05002 22.3891 7.75564 20.3245 6.1837 17.2086C5.58405 15.9964 4.86104 14.4294 4.74454 14.0559C4.62889 13.6687 4.79594 13.3508 5.17286 13.2309C5.30136 13.1898 6.0295 13.1667 7.68025 13.1435L10.0077 13.1204L10.2793 13.2215C10.7076 13.3877 10.879 13.5984 11.1788 14.3044C11.4272 14.8989 12.7687 17.5907 13.1885 18.342C13.6168 19.1028 14.0734 19.7385 14.4734 20.1154C14.9574 20.5901 15.1742 20.7066 15.5151 20.6774C15.8064 20.65 15.8835 20.5849 16.0633 20.1934C16.5002 19.2484 16.5705 16.0555 16.179 14.8004C15.9528 14.0859 15.617 13.8152 14.6859 13.6156C14.5248 13.5787 14.5248 13.523 14.6722 13.3072C15.0319 12.7906 15.6719 12.5421 16.8934 12.4419C17.5616 12.3862 19.543 12.3819 20.0921 12.4376L20.0956 12.4384Z" fill="#232323"/>
</svg>
